<svg xmlns="http://www.w3.org/2000/svg" xmlns:xlink="http://www.w3.org/1999/xlink" width="166" height="49" viewBox="0 0 166 49">
  <defs>
    <polygon id="logo-white-a" points=".014 .03 93.974 .03 93.974 48.32 .015 48.32"/>
  </defs>
  <g fill="none" fill-rule="evenodd">
    <path fill="#FFF" fill-rule="nonzero" d="M0,14.13 L0,14.253 L27.95,27.383 L56,14.209 L56,14.176 L27.95,1 L0,14.13 Z M10.077,14.192 L27.95,5.795 L45.827,14.192 L27.95,22.588 L10.076,14.192 L10.077,14.192 Z M27.95,32.483 L0,19.55 L0,24.334 L27.95,37.298 L56,24.289 L56,19.505 L27.95,32.483 Z M27.95,42.186 L0,29.25 L0,34.033 L27.95,47 L56,33.99 L56,29.206 L27.95,42.186 L27.95,42.186 Z"/>
    <g transform="translate(72)">
      <mask id="logo-white-b" fill="#fff">
        <use xlink:href="#logo-white-a"/>
      </mask>
      <path fill="#FFF" fill-rule="nonzero" d="M87.56,24.152 C87.5764974,22.0867665 86.8034796,20.0932321 85.399,18.579 C84.7384099,17.8708228 83.9427911,17.3019894 83.059,16.906 C82.1629333,16.5040904 81.1910553,16.2991434 80.209,16.3048779 C79.199,16.3048779 78.248,16.505 77.357,16.906 C76.4731819,17.3019423 75.6775543,17.870782 75.017,18.579 C73.6128212,20.0937477 72.8401783,22.0875955 72.857,24.153 C72.8404338,26.2180599 73.613059,28.2115045 75.017,29.726 C75.6776473,30.4338581 76.4732684,31.0023532 77.357,31.398 C78.2532976,31.8003937 79.2255349,32.0056854 80.208,32.0001149 C81.218,32.0001149 82.168,31.8 83.06,31.398 C83.9433469,31.0021912 84.7386103,30.4337088 85.399,29.726 C86.8033536,28.2113616 87.5760244,26.2174415 87.559,24.152 L87.56,24.152 Z M93.975,24.152 C93.975,26.084 93.618,27.875 92.905,29.525 C92.2204433,31.1335702 91.2208034,32.5888282 89.965,33.805 C88.718,35.01 87.255,35.961 85.577,36.659 C83.899,37.358 82.109,37.707 80.208,37.707 C78.308,37.707 76.525,37.358 74.862,36.659 C73.2374323,35.9859174 71.7557552,35.0098974 70.496,33.783 C69.242964,32.5560117 68.2439409,31.0941759 67.556,29.481 C66.843,27.831 66.486,26.055 66.486,24.152 C66.486,22.279 66.85,20.518 67.578,18.868 C68.2825196,17.2517586 69.2876726,15.7840723 70.54,14.543 C71.7951413,13.3043972 73.2780542,12.3203163 74.907,11.645 C76.585733,10.9433581 78.3885648,10.5869408 80.208,10.5967929 C82.109,10.5967929 83.898,10.947 85.577,11.645 C87.255,12.343 88.717,13.295 89.965,14.499 C91.213,15.703 92.193,17.137 92.905,18.801 C93.618,20.466 93.975,22.25 93.975,24.152 L93.975,24.152 Z M64.258,36.905 C63.7083319,37.1581344 63.1334808,37.3525447 62.543,37.485 C61.905,37.633 61.243,37.7070627 60.561,37.7070627 C59.6343774,37.7103091 58.7119323,37.5827155 57.821,37.328 C56.9755685,37.0920327 56.1921687,36.6735367 55.526,36.102 C54.873,35.537 54.353,34.802 53.966,33.895 C53.581,32.988 53.388,31.895 53.388,30.618 L53.388,0.029 L59.937,0.029 L59.937,29.503 C59.937,30.573 60.152,31.309 60.583,31.71 C61.013,32.111 61.526,32.312 62.12,32.312 C62.862,32.312 63.575,32.089 64.258,31.643 L64.258,36.905 L64.258,36.905 Z M50.492,11.22 L38.908,41.854 C38.047,44.143 36.918,45.793 35.522,46.804 C34.126,47.814 32.462,48.319 30.532,48.319 C30.235,48.319 29.909,48.297 29.552,48.253 C29.206,48.2103863 28.8634691,48.1432168 28.527,48.052 L26.389,42.077 C26.8895914,42.3130955 27.41208,42.4996507 27.949,42.634 C28.483,42.768 28.988,42.835 29.463,42.835 C30.473,42.835 31.393,42.605 32.225,42.144 C33.057,41.684 33.695,40.829 34.141,39.58 L35.032,36.994 L25.097,11.221 L32.092,11.221 L38.017,27.809 L43.587,11.221 L50.492,11.221 L50.492,11.22 Z M23.538,7.342 L6.786,7.342 L6.786,15.636 L23.315,15.636 L23.315,21.254 L6.785,21.254 L6.785,37.038 L0.015,37.038 L0.015,1.412 L23.539,1.412 L23.539,7.342 L23.538,7.342 Z" mask="url(#logo-white-b)"/>
    </g>
  </g>
</svg>
